<svg width="198" height="39" viewBox="0 0 198 39" fill="none" xmlns="http://www.w3.org/2000/svg">
<path d="M18.4401 3.34399C20.5521 3.34399 22.2801 3.66399 23.6241 4.30399C25.0001 4.91199 26.2161 5.63199 27.2721 6.46399C27.9121 6.94399 28.3921 7.00799 28.7121 6.65599C29.0641 6.27199 29.3041 5.39199 29.4321 4.01599H30.5361C30.4721 5.26399 30.4241 6.79999 30.3921 8.62399C30.3601 10.448 30.3441 12.848 30.3441 15.824H29.2401C29.1121 14.32 28.9041 13.008 28.6161 11.888C28.3601 10.768 27.9761 9.77599 27.4641 8.91199C26.9521 8.04799 26.2161 7.27999 25.2561 6.60799C24.5201 5.99999 23.6881 5.53599 22.7601 5.21599C21.8641 4.86399 20.9361 4.68799 19.9761 4.68799C18.2161 4.68799 16.7281 5.18399 15.5121 6.17599C14.3281 7.13599 13.3681 8.41599 12.6321 10.016C11.9281 11.584 11.4161 13.344 11.0961 15.296C10.8081 17.216 10.6641 19.152 10.6641 21.104C10.6641 23.088 10.8241 25.056 11.1441 27.008C11.4641 28.928 11.9761 30.672 12.6801 32.24C13.4161 33.808 14.3921 35.072 15.6081 36.032C16.8241 36.96 18.3121 37.424 20.0721 37.424C21.0001 37.424 21.9121 37.264 22.8081 36.944C23.7361 36.624 24.5681 36.16 25.3041 35.552C26.7121 34.592 27.6561 33.344 28.1361 31.808C28.6481 30.24 29.0161 28.208 29.2401 25.712H30.3441C30.3441 28.816 30.3601 31.328 30.3921 33.248C30.4241 35.136 30.4721 36.72 30.5361 38H29.4321C29.3041 36.624 29.0801 35.76 28.7601 35.408C28.4721 35.056 27.9761 35.104 27.2721 35.552C26.0881 36.384 24.8241 37.12 23.4801 37.76C22.1681 38.368 20.4721 38.672 18.3921 38.672C14.9041 38.672 11.8321 37.984 9.17607 36.608C6.55207 35.232 4.50407 33.248 3.03207 30.656C1.59207 28.064 0.87207 24.944 0.87207 21.296C0.87207 17.712 1.62407 14.576 3.12807 11.888C4.63207 9.19999 6.69607 7.10399 9.32007 5.59999C11.9761 4.09599 15.0161 3.34399 18.4401 3.34399Z" fill="#976355"/>
<path d="M40.7571 38.336C39.2851 38.336 38.0691 38.064 37.1091 37.52C36.1491 36.944 35.4451 36.192 34.9971 35.264C34.5491 34.336 34.3251 33.344 34.3251 32.288C34.3251 30.944 34.6291 29.84 35.2371 28.976C35.8771 28.112 36.6931 27.424 37.6851 26.912C38.6771 26.368 39.7171 25.92 40.8051 25.568C41.8931 25.216 42.9331 24.88 43.9251 24.56C44.9171 24.208 45.7171 23.808 46.3251 23.36C46.9331 22.88 47.2371 22.272 47.2371 21.536V17.552C47.2371 16.848 47.1251 16.192 46.9011 15.584C46.7091 14.944 46.3411 14.432 45.7971 14.048C45.2851 13.632 44.5651 13.424 43.6371 13.424C43.0611 13.424 42.5011 13.504 41.9571 13.664C41.4131 13.824 40.9331 14.08 40.5171 14.432C41.5411 14.784 42.2931 15.312 42.7731 16.016C43.2851 16.72 43.5411 17.504 43.5411 18.368C43.5411 19.552 43.1251 20.496 42.2931 21.2C41.4931 21.872 40.5331 22.208 39.4131 22.208C38.1971 22.208 37.2531 21.824 36.5811 21.056C35.9411 20.288 35.6211 19.36 35.6211 18.272C35.6211 17.312 35.8611 16.512 36.3411 15.872C36.8211 15.2 37.5251 14.592 38.4531 14.048C39.3811 13.504 40.5011 13.104 41.8131 12.848C43.1251 12.592 44.5171 12.464 45.9891 12.464C47.4931 12.464 48.8691 12.624 50.1171 12.944C51.3971 13.232 52.4851 13.824 53.3811 14.72C54.0851 15.456 54.5331 16.352 54.7251 17.408C54.9171 18.464 55.0131 19.808 55.0131 21.44V34.4C55.0131 35.2 55.0771 35.76 55.2051 36.08C55.3651 36.368 55.6051 36.512 55.9251 36.512C56.2131 36.512 56.4851 36.432 56.7411 36.272C56.9971 36.112 57.2531 35.936 57.5091 35.744L58.0371 36.56C57.3331 37.136 56.5011 37.584 55.5411 37.904C54.5811 38.192 53.5411 38.336 52.4211 38.336C51.1411 38.336 50.1331 38.176 49.3971 37.856C48.6931 37.504 48.1811 37.04 47.8611 36.464C47.5731 35.888 47.4131 35.248 47.3811 34.544C46.6771 35.696 45.7971 36.624 44.7411 37.328C43.6851 38 42.3571 38.336 40.7571 38.336ZM44.7411 34.88C45.2531 34.88 45.7011 34.784 46.0851 34.592C46.5011 34.368 46.8851 34 47.2371 33.488V23.504C46.9811 23.952 46.6291 24.384 46.1811 24.8C45.7651 25.184 45.3171 25.584 44.8371 26C44.3571 26.384 43.8931 26.816 43.4451 27.296C43.0291 27.776 42.6771 28.352 42.3891 29.024C42.1331 29.664 42.0051 30.448 42.0051 31.376C42.0051 32.624 42.2611 33.52 42.7731 34.064C43.2851 34.608 43.9411 34.88 44.7411 34.88Z" fill="#976355"/>
<path d="M76.3929 12.464C77.4809 12.464 78.3449 12.704 78.9849 13.184C79.6249 13.632 80.0889 14.224 80.3769 14.96C80.6649 15.664 80.8089 16.368 80.8089 17.072C80.8089 18.384 80.4249 19.44 79.6569 20.24C78.9209 21.04 77.9449 21.44 76.7289 21.44C75.4489 21.44 74.4729 21.152 73.8009 20.576C73.129 19.968 72.7929 19.168 72.7929 18.176C72.7929 17.184 73.0009 16.368 73.4169 15.728C73.8649 15.088 74.4089 14.544 75.0489 14.096C74.5689 14.032 74.1049 14.096 73.6569 14.288C73.1449 14.416 72.6649 14.656 72.2169 15.008C71.769 15.36 71.3849 15.776 71.0649 16.256C70.7449 16.736 70.4889 17.264 70.2969 17.84C70.1369 18.384 70.0569 18.944 70.0569 19.52V33.056C70.0569 34.592 70.393 35.632 71.0649 36.176C71.769 36.72 72.8729 36.992 74.3769 36.992V38C73.6409 37.968 72.5529 37.936 71.1129 37.904C69.6729 37.84 68.185 37.808 66.6489 37.808C65.2729 37.808 63.8809 37.84 62.4729 37.904C61.0969 37.936 60.0729 37.968 59.4009 38V36.992C60.4569 36.992 61.1929 36.752 61.6089 36.272C62.0569 35.792 62.2809 34.88 62.2809 33.536V18.368C62.2809 16.928 62.0729 15.872 61.6569 15.2C61.2409 14.496 60.4889 14.144 59.4009 14.144V13.136C60.4249 13.232 61.4169 13.28 62.3769 13.28C63.8169 13.28 65.1769 13.232 66.4569 13.136C67.769 13.008 68.9689 12.832 70.0569 12.608V16.544C70.4409 15.712 70.9369 14.992 71.5449 14.384C72.1849 13.776 72.9049 13.312 73.7049 12.992C74.5369 12.64 75.4329 12.464 76.3929 12.464Z" fill="#976355"/>
<path d="M91.2868 0.463989V33.536C91.2868 34.88 91.4948 35.792 91.9108 36.272C92.3588 36.752 93.1108 36.992 94.1668 36.992V38C93.5588 37.968 92.6308 37.936 91.3828 37.904C90.1348 37.84 88.8548 37.808 87.5428 37.808C86.2628 37.808 84.9508 37.84 83.6068 37.904C82.2948 37.936 81.3028 37.968 80.6308 38V36.992C81.6868 36.992 82.4228 36.752 82.8388 36.272C83.2868 35.792 83.5108 34.88 83.5108 33.536V6.17599C83.5108 4.76799 83.3028 3.72799 82.8868 3.05599C82.5028 2.35199 81.7508 1.99999 80.6308 1.99999V0.991991C81.6548 1.08799 82.6468 1.13599 83.6068 1.13599C85.0788 1.13599 86.4548 1.08799 87.7348 0.991991C89.0148 0.863991 90.1988 0.68799 91.2868 0.463989Z" fill="#976355"/>
<path d="M108.305 12.464C110.705 12.464 112.801 12.896 114.593 13.76C116.417 14.592 117.825 15.968 118.817 17.888C119.841 19.808 120.353 22.368 120.353 25.568C120.353 28.768 119.841 31.328 118.817 33.248C117.825 35.168 116.417 36.56 114.593 37.424C112.801 38.256 110.705 38.672 108.305 38.672C105.937 38.672 103.841 38.256 102.017 37.424C100.225 36.56 98.8171 35.168 97.7931 33.248C96.7691 31.328 96.2571 28.768 96.2571 25.568C96.2571 22.368 96.7691 19.808 97.7931 17.888C98.8171 15.968 100.225 14.592 102.017 13.76C103.841 12.896 105.937 12.464 108.305 12.464ZM108.305 13.424C107.185 13.424 106.241 14.384 105.473 16.304C104.737 18.192 104.369 21.28 104.369 25.568C104.369 29.856 104.737 32.96 105.473 34.88C106.241 36.768 107.185 37.712 108.305 37.712C109.457 37.712 110.401 36.768 111.137 34.88C111.873 32.96 112.241 29.856 112.241 25.568C112.241 21.28 111.873 18.192 111.137 16.304C110.401 14.384 109.457 13.424 108.305 13.424Z" fill="#976355"/>
<path d="M132.848 12.464C134.256 12.464 135.472 12.624 136.496 12.944C137.52 13.264 138.272 13.568 138.752 13.856C139.872 14.56 140.544 14.112 140.768 12.512H141.776C141.712 13.44 141.664 14.56 141.632 15.872C141.6 17.152 141.584 18.88 141.584 21.056H140.576C140.448 19.872 140.16 18.704 139.712 17.552C139.296 16.4 138.672 15.456 137.84 14.72C137.008 13.952 135.92 13.568 134.576 13.568C133.712 13.568 132.976 13.824 132.368 14.336C131.792 14.848 131.504 15.552 131.504 16.448C131.504 17.408 131.792 18.256 132.368 18.992C132.944 19.728 133.68 20.432 134.576 21.104C135.504 21.776 136.432 22.496 137.36 23.264C138.384 24.032 139.296 24.816 140.096 25.616C140.928 26.384 141.584 27.232 142.064 28.16C142.576 29.056 142.832 30.144 142.832 31.424C142.832 32.864 142.4 34.128 141.536 35.216C140.672 36.304 139.536 37.152 138.128 37.76C136.72 38.368 135.152 38.672 133.424 38.672C132.368 38.672 131.44 38.56 130.64 38.336C129.872 38.144 129.232 37.888 128.72 37.568C128.24 37.344 127.808 37.152 127.424 36.992C127.072 36.832 126.72 36.72 126.368 36.656C126.048 36.624 125.776 36.768 125.552 37.088C125.328 37.408 125.152 37.824 125.024 38.336H124.016C124.08 37.312 124.128 36.064 124.16 34.592C124.192 33.12 124.208 31.168 124.208 28.736H125.216C125.408 30.464 125.76 31.984 126.272 33.296C126.816 34.608 127.536 35.648 128.432 36.416C129.328 37.152 130.384 37.52 131.6 37.52C132.144 37.52 132.64 37.424 133.088 37.232C133.568 37.008 133.952 36.672 134.24 36.224C134.56 35.776 134.72 35.2 134.72 34.496C134.72 33.088 134.272 31.92 133.376 30.992C132.48 30.032 131.376 28.992 130.064 27.872C129.04 27.008 128.08 26.16 127.184 25.328C126.32 24.496 125.6 23.584 125.024 22.592C124.48 21.6 124.208 20.48 124.208 19.232C124.208 17.792 124.608 16.576 125.408 15.584C126.24 14.56 127.312 13.792 128.624 13.28C129.936 12.736 131.344 12.464 132.848 12.464Z" fill="#976355"/>
<path d="M171.743 3.96799L183.359 33.968C183.839 35.088 184.335 35.872 184.847 36.32C185.391 36.768 185.871 37.008 186.287 37.04V38C185.263 37.936 184.031 37.904 182.591 37.904C181.183 37.872 179.743 37.856 178.271 37.856C176.735 37.856 175.279 37.872 173.903 37.904C172.527 37.904 171.423 37.936 170.591 38V37.04C172.223 36.976 173.263 36.704 173.711 36.224C174.159 35.712 174.063 34.64 173.423 33.008L165.455 11.216L166.415 9.77599L159.407 27.872C158.671 29.792 158.223 31.344 158.063 32.528C157.903 33.712 157.983 34.624 158.303 35.264C158.623 35.904 159.119 36.352 159.791 36.608C160.495 36.864 161.327 37.008 162.287 37.04V38C161.167 37.936 160.127 37.904 159.167 37.904C158.239 37.872 157.231 37.856 156.143 37.856C155.503 37.856 154.847 37.872 154.175 37.904C153.535 37.904 152.975 37.936 152.495 38V37.04C153.199 36.912 153.903 36.464 154.607 35.696C155.343 34.928 156.063 33.6 156.767 31.712L167.567 3.96799C168.207 4.03199 168.895 4.06399 169.631 4.06399C170.399 4.06399 171.103 4.03199 171.743 3.96799ZM174.239 24.176V25.136H159.935L160.415 24.176H174.239Z" fill="#976355"/>
<path d="M192.608 30.848C193.984 30.848 195.056 31.184 195.824 31.856C196.624 32.528 197.024 33.488 197.024 34.736C197.024 36.016 196.624 36.992 195.824 37.664C195.056 38.336 193.984 38.672 192.608 38.672C191.2 38.672 190.112 38.336 189.344 37.664C188.576 36.992 188.192 36.016 188.192 34.736C188.192 33.488 188.576 32.528 189.344 31.856C190.112 31.184 191.2 30.848 192.608 30.848Z" fill="#976355"/>
</svg>
